Coordinates
version=1
nRows=29
nColumns=24
inDegrees=yes

Units are S.I. units (second, meters, Newtons, ...)
Angles are in degrees.

endheader
time	pelvis_tilt	pelvis_list	pelvis_rotation	pelvis_tx	pelvis_ty	pelvis_tz	hip_flexion_r	hip_adduction_r	hip_rotation_r	knee_angle_r	ankle_angle_r	subtalar_angle_r	mtp_angle_r	hip_flexion_l	hip_adduction_l	hip_rotation_l	knee_angle_l	ankle_angle_l	subtalar_angle_l	mtp_angle_l	lumbar_extension	lumbar_bending	lumbar_rotation
      4.98000000	     -8.99564148	     -2.81332366	     11.93044242	     -1.07850332	     -0.02731159	     -0.33218725	     32.33224587	     -2.29620945	    -10.37077125	     -9.00183182	     -2.09877637	      6.73793187	     12.25052451	     -3.53707735	     -1.13186255	     18.45225450	    -20.40233921	      5.93626437	      3.70133726	     18.73235397	      5.24881778	     -0.45321973	    -12.37815158
      4.98500000	     -9.09248694	     -2.96160041	     11.97454492	     -1.07180338	     -0.02801855	     -0.33154438	     32.46259577	     -2.13871651	    -10.45798927	     -9.60779272	     -2.91940214	      6.49089423	     13.07932713	     -3.54093070	     -1.42955490	     18.04456112	    -20.82773455	      5.51727464	      4.40179848	     19.49427962	      5.56559222	     -0.30598675	    -12.35740061
      4.99000000	     -9.16061500	     -3.05552374	     11.99294789	     -1.06519198	     -0.02860870	     -0.33090938	     32.56438843	     -2.01374458	    -10.39915224	    -10.17109358	     -4.19086214	      5.94632984	     14.89014487	     -3.60004316	     -1.65600351	     17.74828484	    -21.18120036	      4.71383224	      4.67860012	     20.76872938	      5.81649707	     -0.19843916	    -12.28898549
      4.99500000	     -9.21220662	     -3.32063346	     12.02712333	     -1.05847299	     -0.02911403	     -0.33030297	     32.70444067	     -1.74145616	    -10.54731142	    -10.90391730	     -4.78891813	      5.89423982	     15.01554464	     -3.57617856	     -2.07831466	     17.32169713	    -21.71536932	      4.35737245	      5.49044372	     21.07460877	      6.11423444	      0.09514552	    -12.29686586
      5.00000000	     -9.30502600	     -3.59110312	     11.99165354	     -1.05182365	     -0.02959052	     -0.32954240	     32.91690430	     -1.41415156	    -10.44381826	    -11.66030953	     -5.51417826	      5.60473566	     15.18223872	     -3.46089113	     -2.50919503	     16.73976844	    -22.30270550	      3.88835422	      6.39409173	     21.66116387	      6.44134933	      0.38800759	    -12.21652353
      5.00500000	     -9.39781282	     -3.88944394	     11.92196716	     -1.04519233	     -0.02996649	     -0.32873238	     33.14772478	     -1.02698758	    -10.20077669	    -12.44101984	     -6.26410027	      5.20649241	     15.32478599	     -3.31340868	     -2.97281259	     16.11227775	    -22.91492073	      3.27593904	      7.26743573	     22.43955762	      6.77022252	      0.71839132	    -12.09981875
      5.01000000	     -9.47432494	     -4.13023996	     11.85863641	     -1.03872850	     -0.03021226	     -0.32784031	     33.37059782	     -0.66190899	     -9.69653839	    -13.25070767	     -7.05467228	      4.55402064	     15.46017443	     -3.13808327	     -3.39042391	     15.44322509	    -23.54618590	      2.36330022	      8.07899263	     23.79395696	      7.03511884	      0.97521817	    -12.02387079
      5.01500000	     -9.54341200	     -4.49103178	     11.72027024	     -1.03208308	     -0.03034377	     -0.32697554	     33.60725948	     -0.14296515	     -9.28303166	    -14.08793371	     -7.73562561	      4.06377595	     15.34321885	     -2.97171514	     -3.93327741	     14.75636130	    -24.15158812	      1.32540594	      8.76562680	     25.24770569	      7.35049474	      1.39333136	    -11.86297905
      5.02000000	     -9.56963704	     -4.81987986	     11.60384504	     -1.02548543	     -0.03037178	     -0.32611156	     33.79978506	      0.35167063	     -8.79409529	    -14.97748266	     -8.12344485	      3.73635370	     15.09833317	     -2.77520071	     -4.47332550	     13.94701571	    -24.90666387	      0.42085703	      9.86205453	     26.17809582	      7.60273154	      1.77686644	    -11.77234749
      5.02500000	     -9.61509649	     -5.18736865	     11.41893377	     -1.01881579	     -0.03031243	     -0.32516440	     34.01104604	      0.95255573	     -8.19156812	    -15.85658466	     -8.52013462	      3.16083482	     14.38918876	     -2.55579434	     -5.05611570	     13.09730431	    -25.61744789	     -0.84561428	     10.67203964	     27.69042374	      7.89209247	      2.21339166	    -11.57317292
      5.03000000	     -9.61247082	     -5.52011956	     11.27027383	     -1.01222012	     -0.03016516	     -0.32425160	     34.15593876	      1.51691563	     -7.56942560	    -16.74073123	     -8.72283522	      2.72135338	     13.74781078	     -2.31634136	     -5.63290053	     12.20063990	    -26.45406752	     -2.05502370	     11.77515774	     28.87940556	      8.10530608	      2.61395194	    -11.46067273
      5.03500000	     -9.58773172	     -5.83368574	     11.09516049	     -1.00553504	     -0.02991948	     -0.32331116	     34.24710809	      2.09991671	     -6.94630523	    -17.59251071	     -8.81253573	      2.25692335	     12.96857621	     -2.09652956	     -6.20906333	     11.27494315	    -27.28650407	     -3.47425452	     12.82501114	     30.16452942	      8.30278731	      3.00266507	    -11.31251666
      5.04000000	     -9.54170675	     -6.12543129	     10.92122196	     -0.99876249	     -0.02960670	     -0.32239940	     34.26898664	      2.67607141	     -6.35768808	    -18.38511106	     -8.77938413	      1.80244169	     12.22160908	     -1.88233041	     -6.77901980	     10.35624200	    -28.14897889	     -5.01347779	     13.89913890	     31.35149185	      8.48886020	      3.37310271	    -11.18708581
      5.04500000	     -9.46133442	     -6.38331172	     10.77042601	     -0.99203628	     -0.02921408	     -0.32150257	     34.22300793	      3.22183461	     -5.80040345	    -19.14070032	     -8.67100045	      1.37400709	     11.46081706	     -1.66937831	     -7.33265646	      9.45581188	    -29.04488751	     -6.69524058	     14.92552235	     32.53465333	      8.61918842	      3.70791416	    -11.06704021
      5.05000000	     -9.36766610	     -6.60332655	     10.62815993	     -0.98524353	     -0.02877776	     -0.32064825	     34.10154468	      3.73429143	     -5.29668567	    -19.80845986	     -8.46802045	      0.95044045	     10.81626166	     -1.45808795	     -7.85390585	      8.60898618	    -29.96453255	     -8.47921513	     15.93903191	     33.55225048	      8.74349523	      4.00444350	    -10.97389827
      5.05500000	     -9.26253473	     -6.76996554	     10.50380696	     -0.97851612	     -0.02832126	     -0.31989299	     33.93024204	      4.15879637	     -4.94116598	    -20.41686127	     -8.20531786	      0.76402598	     10.68926289	     -1.22212199	     -8.31047071	      7.86333170	    -30.98041843	    -10.15784522	     17.04915378	     33.90368534	      8.83531013	      4.25466528	    -10.87718400
      5.06000000	     -9.12802377	     -6.92970050	     10.42336230	     -0.97180490	     -0.02778936	     -0.31909286	     33.65868855	      4.60800544	     -4.50207482	    -20.92071797	     -7.86116763	      0.27463181	      9.93382056	     -0.99480824	     -8.77573128	      7.17034056	    -31.91179496	    -12.31316291	     17.68423097	     35.23491175	      8.89370161	      4.47958058	    -10.85875090
      5.06500000	     -9.05285182	     -7.06212116	     10.34061105	     -0.96516075	     -0.02734494	     -0.31834296	     33.40832973	      4.99519003	     -4.15359162	    -21.32998781	     -7.60655015	     -0.09662020	      9.91327233	     -0.64387852	     -9.18391959	      6.59372396	    -33.03111355	    -14.04952572	     18.57799591	     35.21209642	      9.00674266	      4.67120605	    -10.83567305
      5.07000000	     -8.97221154	     -7.18956324	     10.27714147	     -0.95858623	     -0.02688034	     -0.31759368	     33.09975601	      5.37893552	     -3.82039650	    -21.63508532	     -7.38192407	     -0.57143307	      9.88984434	     -0.26036589	     -9.57722348	      6.09071225	    -34.17120587	    -15.86759756	     19.18162064	     35.22182853	      9.10426185	      4.84836249	    -10.83777671
      5.07500000	     -8.88019356	     -7.27526408	     10.27863288	     -0.95214904	     -0.02641151	     -0.31695741	     32.74005244	      5.67162850	     -3.61828408	    -21.87862402	     -7.02840786	     -0.92112257	     10.00629589	      0.16562588	     -9.90206933	      5.73041777	    -35.36682942	    -17.62170922	     19.57819019	     35.03060515	      9.17060228	      4.97671253	    -10.91058457
      5.08000000	     -8.79320810	     -7.34457370	     10.27287616	     -0.94578183	     -0.02590013	     -0.31629220	     32.35090461	      5.94320011	     -3.46453545	    -22.05765202	     -6.65730257	     -1.17527783	     10.15402770	      0.61005842	    -10.18507697	      5.50545333	    -36.55899970	    -19.31854195	     19.92685306	     34.71797289	      9.23062312	      5.08641774	    -10.96757465
      5.08500000	     -8.75785210	     -7.49295632	     10.26788439	     -0.93950324	     -0.02551447	     -0.31558461	     31.98035123	      6.29389506	     -3.30049254	    -22.11755940	     -6.38745055	     -1.61732608	     10.31412987	      1.19699800	    -10.53936757	      5.24308473	    -37.85519957	    -20.89360584	     19.86646633	     34.39260041	      9.35155477	      5.25956747	    -11.01154827
      5.09000000	     -8.72691621	     -7.61624333	     10.27561651	     -0.93335295	     -0.02510070	     -0.31487780	     31.59259929	      6.60393115	     -3.17707233	    -22.13651506	     -6.10464909	     -1.99326955	     10.53789732	      1.81890988	    -10.84014040	      5.09494881	    -39.16206349	    -22.35280997	     19.71695533	     34.01375939	      9.45710340	      5.39766772	    -11.07034876
      5.09500000	     -8.75985624	     -7.72995559	     10.30515604	     -0.92742600	     -0.02471918	     -0.31418482	     31.26938927	      6.86790020	     -3.11264162	    -22.11312094	     -5.96928984	     -2.41166063	     10.97207008	      2.57561416	    -11.07775226	      5.07569150	    -40.52891520	    -23.67715895	     19.35020741	     33.52345033	      9.59857985	      5.51120224	    -11.12841294
      5.10000000	     -8.72702645	     -7.90200658	     10.34099545	     -0.92149845	     -0.02431914	     -0.31349553	     30.84310658	      7.19377509	     -3.09625093	    -22.01702384	     -5.67929585	     -2.66994875	     11.33078398	      3.30296658	    -11.39373410	      5.01412124	    -41.92436279	    -24.77926262	     18.81072913	     33.08618283	      9.68761879	      5.69309072	    -11.20173033
      5.10500000	     -8.78923982	     -8.02863929	     10.42408414	     -0.91571979	     -0.02394759	     -0.31284691	     30.51202924	      7.41940402	     -3.15648523	    -21.89819051	     -5.50694504	     -2.99497196	     11.98459406	      4.18619059	    -11.59490949	      5.10871591	    -43.35007135	    -25.74282457	     18.10086088	     32.49654650	      9.86260901	      5.78942788	    -11.33579729
      5.11000000	     -8.76567569	     -8.23263968	     10.48449853	     -0.91002496	     -0.02351615	     -0.31219844	     30.08446944	      7.74801499	     -3.19537628	    -21.73932228	     -5.29984649	     -3.20253229	     12.47982607	      5.01388006	    -11.88711375	      5.17291902	    -44.79079915	    -26.48300354	     17.22980530	     32.05592322	      9.94290705	      5.99885842	    -11.42056739
      5.11500000	     -8.71150448	     -8.45787387	     10.53031895	     -0.90445898	     -0.02305009	     -0.31151918	     29.63352951	      8.10441382	     -3.29250729	    -21.57363804	     -5.07070020	     -3.33798902	     12.77538057	      5.84185235	    -12.19897881	      5.22519975	    -46.23840152	    -27.02172932	     16.22002752	     31.74438419	      9.97145103	      6.24031096	    -11.44754188
      5.12000000	     -8.65359181	     -8.69785451	     10.58528798	     -0.89881948	     -0.02255777	     -0.31083333	     29.14894468	      8.47890509	     -3.36947055	    -21.36517712	     -4.76459284	     -3.44356710	     13.01632968	      6.67692280	    -12.51841887	      5.29300482	    -47.65324276	    -27.39521097	     15.08528549	     31.48321628	     10.02443015	      6.48482844	    -11.51024380
